<svg width="48" height="30" viewBox="0 0 48 30" fill="none" xmlns="http://www.w3.org/2000/svg">
<g clip-path="url(#clip0_153_4847)">
<path d="M47.9968 0H0V30H47.9968V0Z" fill="#1D2C77"/>
<path d="M29.8699 0.00321268V1.67702L23.246 5.00214H29.8699V9.99786H23.2557L29.8699 13.3198V14.9968H26.5308L17.4257 10.4251V14.9968H12.4474V10.4251L3.33916 14.9968H0.00960448L0.00640299 15V15.0064L0 14.9968H0.00640299V13.3166L6.61749 9.99786H0V5.00214H6.62389L0.00640299 1.68023V0.00321268H3.34876L12.4474 4.57164V0H17.4257V4.57164L26.5212 0.00321268H29.8699Z" fill="white"/>
<path d="M19.9143 5.00204L23.0134 3.4471L23.0198 3.44389L29.4708 0.205512L29.474 0.202299L29.8678 0.00311279H27.6363L17.6797 5.00204H19.9143Z" fill="#DE0334"/>
<path d="M9.96571 5.00216L6.06309 3.04564L6.05988 3.03922L0.00906087 0.00323486H0.00585938V1.12125L7.73747 5.00216H9.96571Z" fill="#DE0334"/>
<path d="M9.98901 9.98822L3.63724 13.1752L3.63404 13.1784L0.00994873 14.9968H2.22858L12.2076 9.98822H9.98901Z" fill="#DE0334"/>
<path d="M29.8699 6.00129H17.9252H16.4301V5.00214V4.06404V0H13.4399V4.06404V5.00214V6.00129H11.9544H9.72614H0V8.99871H11.9512L11.9288 9.01157H13.4399V14.9968H16.4301V9.01157V8.99871H17.9284L17.9508 9.01157H20.179L20.1566 8.99871H29.8699V6.00129Z" fill="#DE0334"/>
<path d="M19.8906 9.98822L25.4324 12.7672L25.4356 12.7704L29.8697 14.9968V13.8788L22.1221 9.98822H19.8906Z" fill="#DE0334"/>
<path d="M14.3307 17.5541L15.0734 19.8736L17.3433 19.0094L15.9986 21.0398L18.086 22.2831L15.6657 22.4952L15.9986 24.9079L14.3243 23.1409L12.6499 24.9079L12.9828 22.4952L10.5625 22.2831L12.6499 21.0398L11.3052 19.0094L13.5783 19.8736L14.3211 17.5541H14.3307Z" fill="white"/>
<path d="M40.0384 21.7305L40.3938 22.8357L41.4759 22.4245L40.8356 23.3915L41.8312 23.9826L40.6787 24.0822L40.8388 25.2324L40.0416 24.3906L39.2444 25.2324L39.4045 24.0822L38.252 23.9826L39.2476 23.3915L38.6073 22.4245L39.6894 22.8357L40.0448 21.7305H40.0384Z" fill="white"/>
<path d="M33.6139 11.5206L33.9692 12.6258L35.0513 12.2146L34.411 13.1816L35.4067 13.7727L34.2542 13.8723L34.4142 15.0224L33.6171 14.1807L32.8199 15.0224L32.9768 13.8723L31.8242 13.7727L32.8199 13.1816L32.1796 12.2146L33.2617 12.6258L33.6171 11.5206H33.6139Z" fill="white"/>
<path d="M40.0384 4.53308L40.3938 5.63824L41.4759 5.22702L40.8356 6.19404L41.8312 6.78517L40.6787 6.88476L40.8388 8.0349L40.0416 7.19318L39.2444 8.0349L39.4045 6.88476L38.252 6.78517L39.2476 6.19404L38.6073 5.22702L39.6894 5.63824L40.0448 4.53308H40.0384Z" fill="white"/>
<path d="M45.753 9.79865L46.1084 10.9038L47.1905 10.4926L46.5502 11.4596L47.5459 12.0507L46.3933 12.1503L46.5534 13.3005L45.7562 12.4587L44.9591 13.3005L45.1191 12.1503L43.9666 12.0507L44.9623 11.4596L44.322 10.4926L45.4041 10.9038L45.7594 9.79865H45.753Z" fill="white"/>
<path d="M42.6104 14.9743L42.8889 15.6618L43.6285 15.7164L43.0618 16.1951L43.2379 16.918L42.6072 16.526L41.9765 16.918L42.1526 16.1951L41.5859 15.7164L42.3255 15.6618L42.604 14.9743H42.6104Z" fill="white"/>
</g>
<defs>
<clipPath id="clip0_153_4847">
<rect width="48" height="30" rx="2" fill="white"/>
</clipPath>
</defs>
</svg>
