<svg width="48" height="30" viewBox="0 0 48 30" fill="none" xmlns="http://www.w3.org/2000/svg">
<g clip-path="url(#clip0_153_4879)">
<path d="M35.9984 0H12V30H35.9984V0Z" fill="white"/>
<path d="M11.9992 0H0V30H11.9992V0Z" fill="#E4330E"/>
<path d="M47.9971 0H35.9979V30H47.9971V0Z" fill="#E4330E"/>
<path d="M23.9972 5.19812L22.342 8.29514C22.1531 8.63247 21.817 8.60035 21.4808 8.4108L20.2835 7.78754L21.1767 12.5455C21.3656 13.4129 20.7605 13.4129 20.4628 13.0403L18.3722 10.6918L18.0328 11.8837C17.9944 12.0411 17.8215 12.205 17.5622 12.1664L14.9178 11.6074L15.6125 14.1422C15.7598 14.7044 15.8782 14.939 15.462 15.0867L14.5176 15.5301L19.0701 19.2407C19.2494 19.3821 19.3422 19.6327 19.2782 19.864L18.878 21.1748C20.4467 20.9949 21.849 20.7218 23.4177 20.5547C23.5554 20.5387 23.7891 20.77 23.7859 20.9306L23.5778 25.7368H24.3398L24.2181 20.9403C24.2181 20.7796 24.4294 20.5387 24.5671 20.5547C26.1358 20.7218 27.5413 20.9949 29.1068 21.1748L28.7066 19.864C28.6426 19.6359 28.7322 19.3821 28.9147 19.2407L33.4672 15.5301L32.5228 15.0867C32.1098 14.939 32.225 14.7044 32.3723 14.1422L33.067 11.6074L30.4226 12.1664C30.1633 12.205 29.9936 12.0411 29.952 11.8837L29.6126 10.6918L27.522 13.0403C27.2243 13.4162 26.6224 13.4162 26.8113 12.5455L27.7045 7.78754L26.5072 8.4108C26.171 8.60035 25.8349 8.62926 25.646 8.29514L23.9908 5.19812H23.9972Z" fill="#E4330E"/>
</g>
<defs>
<clipPath id="clip0_153_4879">
<rect width="48" height="30" rx="2" fill="white"/>
</clipPath>
</defs>
</svg>
