<svg width="30" height="30" viewBox="0 0 30 30" fill="none" xmlns="http://www.w3.org/2000/svg">
<g clip-path="url(#clip0_153_4985)">
<path d="M15 30C23.2843 30 30 23.2843 30 15C30 6.71573 23.2843 0 15 0C6.71573 0 0 6.71573 0 15C0 23.2843 6.71573 30 15 30Z" fill="#0071BC"/>
<path d="M20.7653 3.13336H20.764C20.7646 3.13402 20.7653 3.13536 20.766 3.13602C20.766 3.13469 20.766 3.13402 20.7653 3.13269V3.13336Z" fill="#4DCD5E"/>
<path d="M21.996 5.01868C21.942 5.36801 22.2506 5.67935 22.7113 5.72601C22.8006 5.73535 22.8146 5.66201 22.8546 5.63068C23.0093 5.50868 22.8106 5.51268 22.7753 5.48468C22.6273 5.36868 22.4213 5.24135 22.4373 5.10001C22.4853 4.66068 22.4806 4.23001 22.9833 4.04401C23.0986 4.00068 23.0746 3.90735 23.0286 3.82268C22.9986 3.76668 22.9333 3.72401 22.8333 3.71735C22.5886 3.87001 22.3153 4.02001 22.0746 4.20868C22.0173 4.25401 21.8953 4.33535 21.9646 4.46001C22.07 4.64935 22.0233 4.82735 21.9946 5.01868H21.996Z" fill="#4DCD5E"/>
<path d="M17.2954 12.498C17.3554 12.636 17.2354 12.8726 17.292 13.0646C17.3007 13.094 17.3954 13.1093 17.4514 13.1106C17.536 13.1126 17.5394 13.0353 17.5387 12.9786C17.5347 12.7133 17.5254 12.4493 17.518 12.186C17.426 12.2666 17.1654 12.1966 17.296 12.4986L17.2954 12.498Z" fill="#4DCD5E"/>
<path d="M21.274 3.09001C21.46 3.11201 21.3694 3.05534 21.4127 3.01201C21.5 2.92401 21.3994 2.80134 21.5327 2.74134C21.584 2.71801 21.58 2.65601 21.5067 2.62667C21.424 2.59401 21.3814 2.61734 21.3254 2.66334C21.2 2.77001 21.0414 2.80734 20.974 2.59667C20.962 2.56067 20.95 2.52201 20.87 2.52401C20.838 2.52467 20.78 2.50534 20.784 2.55534C20.8 2.73401 20.7074 2.91734 20.766 3.13201C20.9147 3.06534 21.1154 3.07001 21.2747 3.08867L21.274 3.09001Z" fill="#4DCD5E"/>
<path d="M20.04 3.04867C20.2747 3.10934 20.512 3.24267 20.762 3.13534C20.644 3.09201 20.632 3.03867 20.61 2.95201C20.5273 2.63467 20.3387 2.98267 20.1747 2.90134C20.094 2.86067 20.0173 2.94734 19.9987 3.01534C19.996 3.02401 20.0233 3.04401 20.0407 3.04867H20.04Z" fill="#4DCD5E"/>
<path d="M17.494 3.82866C17.4207 4.07066 17.7747 4.13533 17.8447 4.37933C17.94 4.17333 18.0007 4.02799 18.0773 3.89199C18.098 3.85466 18.0033 3.77133 18.1487 3.77999C18.308 3.78933 18.1933 3.85599 18.1927 3.89599C18.1913 3.98533 18.2427 4.04266 18.3607 4.06066C18.4847 4.07933 18.5427 4.00666 18.6067 3.95133C18.708 3.86466 18.542 3.85333 18.5267 3.81066C18.4773 3.67466 18.248 3.68333 18.178 3.54066C18.4887 3.56199 18.806 3.41533 18.7427 3.26733C18.6847 3.12799 18.4287 3.19533 18.2627 3.16666C18.224 3.15999 18.1753 3.18733 18.1293 3.19133C18.1107 3.19266 18.0827 3.19666 18.0653 3.15933C18.028 3.07933 18.0193 3.08799 17.9487 3.13799C17.792 3.24866 17.6733 3.41866 17.3667 3.37066C17.264 3.35466 17.2027 3.37666 17.2033 3.47333C17.2053 3.63266 17.152 3.81266 17.4933 3.82799L17.494 3.82866Z" fill="#4DCD5E"/>
<path d="M16.3613 12.9933C16.4633 12.9593 16.5647 12.9247 16.694 12.8813C16.502 12.7127 16.4313 12.862 16.3613 12.9933Z" fill="#4DCD5E"/>
<path d="M18.6534 3.65869C18.6514 3.67602 18.6814 3.71002 18.7034 3.71402C18.7747 3.72669 18.808 3.68669 18.8307 3.64736C18.8327 3.64336 18.7874 3.62336 18.7754 3.61736C18.71 3.61402 18.6574 3.61536 18.6534 3.65802V3.65869Z" fill="#4DCD5E"/>
<path d="M25.086 4.292C25.1773 4.514 24.73 4.16867 24.7953 4.30133C24.8893 4.49467 24.6746 4.53667 24.7126 4.69C24.7833 4.974 24.6666 4.978 24.4026 4.76267C24.3506 4.72067 24.3626 4.63467 24.2273 4.63C24.2866 4.794 24.5453 4.92467 24.4906 5.10267C24.4793 5.138 24.4506 5.19734 24.43 5.19334C24.3706 5.182 24.3026 5.15134 24.3253 5.07934C24.4066 4.81534 23.97 4.82867 23.9073 4.64267C23.9046 4.63534 23.8026 4.618 23.762 4.628C23.688 4.64667 23.7166 4.71067 23.7426 4.76067C23.818 4.904 23.912 5.07133 23.8626 5.19733C23.812 5.32733 23.7453 5.39733 23.9553 5.52533C24.0066 5.556 24.184 5.86 23.8866 5.80267C23.676 5.76134 23.45 5.84 23.238 5.67867C23.2006 5.65067 23.0933 5.574 23.028 5.656C22.9713 5.72667 23.064 5.78934 23.0933 5.84334C23.198 6.03534 23.206 6.02 22.9653 6.026C22.808 6.03 22.62 5.99934 22.528 6.148C22.476 6.232 22.406 6.188 22.3393 6.144C22.3733 6.406 22.0926 6.444 21.908 6.65067C21.9953 6.20734 21.758 6.18467 21.438 6.22667C21.5873 6.40134 21.6673 6.57667 21.4746 6.72934C21.3093 6.67734 21.27 6.53667 21.1646 6.454C20.7433 6.122 20.186 6.15 19.7793 5.86934C19.6353 5.77 19.5113 5.71067 19.298 5.7C18.7186 5.672 18.3633 5.986 17.9446 6.23867C17.768 6.34534 17.774 6.47734 17.8666 6.57734C17.8873 6.59934 17.8953 6.66134 17.878 6.67667C17.6166 6.90667 17.6246 7.298 17.3086 7.51267C16.894 7.79534 16.47 8.06534 16.7026 8.67534C16.738 8.76667 16.6593 8.91533 16.8133 8.96733C16.964 9.01867 17.1273 9.09467 17.2746 8.942C17.3673 8.846 17.4606 8.74734 17.6366 8.85334C17.5233 8.95134 17.4213 9.05467 17.3033 9.13867C17.162 9.23867 17.026 9.392 17.124 9.522C17.45 9.954 17.0433 9.95134 16.8093 10.0567C16.7433 10.0867 16.6673 10.0947 16.602 10.1253C16.4606 10.1913 16.654 10.4713 16.4053 10.4533C16.086 10.43 16.466 10.2147 16.336 10.1273C16.2906 10.0967 16.216 10.0753 16.1953 10.0547C15.9686 9.824 15.6793 9.63867 15.7346 9.24133C15.7566 9.08267 15.658 8.89267 15.5913 8.74934C15.5406 8.638 14.9373 8.99667 14.956 9.16733C14.9913 9.45733 14.8513 9.60933 14.6073 9.784C14.4686 9.88333 14.364 10.2047 14.4233 10.354C14.4826 10.5033 14.7873 10.4567 14.9646 10.37C15.1473 10.2807 15.1446 10.0533 15.2513 9.88267C15.2973 10.1153 15.304 10.3453 15.2746 10.574C15.266 10.6433 15.128 10.7233 15.2633 10.7733C15.3326 10.7993 15.4666 10.8527 15.5306 10.71C15.54 10.69 15.598 10.6733 15.6253 10.6813C15.7526 10.7167 15.7706 10.8113 15.7573 10.93C15.7446 11.0407 15.6706 10.998 15.6353 10.9753C15.434 10.8473 15.3 10.9933 15.2586 11.1307C15.202 11.3193 15.4113 11.2813 15.5233 11.3273C15.7513 11.4227 15.816 11.6027 15.7846 11.8473C15.748 12.1373 15.564 12.0027 15.4093 12.0493C15.2146 12.1073 15.05 12.0167 14.8566 12.0727C14.6046 12.146 14.3186 12.052 14.6066 12.4453C14.614 12.4547 14.5893 12.5993 14.5313 12.6953C14.2606 13.146 14.3326 13.2913 14.7666 13.3673C14.79 13.3713 14.8206 13.402 14.826 13.426C14.8686 13.618 15.214 13.8207 14.7746 14.0013C14.6473 14.054 14.4326 14.1333 14.4253 14.33C14.406 14.8587 13.9706 15.0493 13.6773 15.3687C13.354 15.7207 12.9566 16.0847 13.17 16.6707C13.2326 16.8433 13.26 17.056 13.16 17.1787C12.8933 17.506 13.1393 17.7847 13.3133 17.9553C13.616 18.2527 13.7713 18.6773 14.1666 18.8767C14.4273 19.0087 14.5973 19.4147 14.9613 19.206C15.1413 19.1033 15.3266 19.0967 15.48 19.1493C15.7506 19.242 15.9493 19.1913 16.1666 19.0433C16.416 18.8733 16.7166 18.8067 16.884 19.1273C17.0346 19.4153 17.4506 19.124 17.5286 19.4693C17.574 19.4273 17.5093 19.318 17.6253 19.316C17.6813 19.5313 17.6493 19.7607 17.5686 19.932C17.4426 20.1993 17.572 20.3853 17.732 20.4947C17.9433 20.6387 18.0966 20.872 18.1166 21.0233C18.152 21.2847 18.4066 21.5433 18.208 21.8047C17.92 22.1833 17.816 22.532 18.112 22.9327C18.242 23.1087 18.2866 23.3467 18.3073 23.554C18.3326 23.8 18.4113 23.9993 18.566 24.1933C18.688 24.3453 18.7946 24.5267 18.7673 24.7153C18.7273 25 18.974 25.04 19.1793 24.9653C19.424 24.8747 19.6633 24.9027 19.9013 24.852C20.2046 24.7867 20.4593 24.6767 20.6333 24.4367C20.788 24.2213 21.1253 24.0787 21.094 23.7687C21.2073 23.8 21.1733 23.6513 21.3066 23.6467C21.59 23.6373 21.6613 23.4253 21.6126 23.244C21.5106 22.8747 21.832 22.712 22.104 22.578C22.544 22.3613 22.8293 21.8173 22.6253 21.4113C22.468 21.1013 22.536 20.426 22.8246 20.2953C23.2186 20.1207 23.4586 19.79 23.7813 19.5447C24.3226 19.1313 24.8066 18.6353 24.7273 17.822C24.446 18.0813 24.098 18.0053 23.804 18.18C23.6733 18.2573 23.5 18.1553 23.4446 17.9893C23.4306 17.9467 23.37 17.8407 23.552 17.8307C24.2426 17.792 24.8173 17.3673 25.4173 17.074C25.7713 16.9007 26.0566 16.5053 26.1653 16.1453C26.2393 15.9013 25.7853 15.8053 25.5706 15.6327C25.5573 15.622 25.56 15.59 25.5406 15.498C26.0793 15.6073 26.598 15.61 27.112 15.592C27.2426 15.5873 27.266 15.7687 27.332 15.7947C27.6406 15.9193 27.612 16.5513 28.126 16.3373C28.2493 16.286 28.188 16.4253 28.1966 16.4773C28.3093 17.116 28.5653 17.6787 28.7593 18.2447C28.806 18.38 28.81 18.7567 29.1806 18.4413C29.3526 18.2947 29.338 18.468 29.2913 18.6127C29.2533 18.7307 29.3186 18.8367 29.3866 18.904C29.4153 18.932 29.4546 18.9093 29.4933 18.8767C29.5386 18.7073 29.582 18.5367 29.6213 18.3647C29.586 18.2907 29.5426 18.222 29.4826 18.162C29.3493 18.0273 29.4086 17.3373 29.5726 17.2287C29.6826 17.158 29.7786 17.072 29.87 16.98C29.9553 16.3313 30.0006 15.67 30.0006 14.998C30.0006 10.6113 28.1173 6.66533 25.116 3.92267C25.1 3.948 25.0846 3.972 25.068 3.998C25.0126 4.08467 25.0313 4.15934 25.0866 4.29067L25.086 4.292ZM20.892 11.5487C20.9106 11.5287 21.1 11.3893 21.1606 11.626C21.2373 11.9273 21.4466 11.9133 21.6666 11.788C21.6666 11.7853 21.6673 11.7827 21.6673 11.78C21.6686 11.782 21.6686 11.784 21.67 11.786C21.6686 11.7867 21.6673 11.788 21.666 11.7887C22.0893 11.702 22.2613 12.168 22.6093 12.2527C22.6286 12.2573 22.65 12.4073 22.632 12.416C22.49 12.486 22.3306 12.5727 22.1733 12.5167C21.7626 12.3713 21.3546 12.12 21.004 12.596C20.88 12.4707 20.6273 12.5667 20.5706 12.3027C20.4966 11.9567 20.704 11.7567 20.892 11.5487ZM18.3546 9.482C18.4846 9.432 18.5266 9.32667 18.4693 9.18134C18.4286 9.07734 18.4346 8.96867 18.5146 8.86333C18.6526 8.68067 18.8813 8.48667 18.4606 8.324C18.3573 8.28134 18.5613 7.68334 18.6886 7.658C18.866 7.61867 18.8413 7.74467 18.876 7.85C18.9726 8.14333 18.9706 8.514 19.5133 8.6C18.9706 8.75134 19.07 9.14867 19.1033 9.376C19.1586 9.75333 19.056 9.76733 18.7473 9.67867C18.66 9.65333 18.548 9.718 18.456 9.69934C18.398 9.68734 18.3066 9.78067 18.2573 9.632C18.212 9.49467 18.264 9.51667 18.3546 9.482ZM19.1206 12.7187C18.7773 12.5913 18.4593 12.4727 18.308 12.122C18.5986 12.2753 19.1006 12.1173 19.1206 12.7187ZM17.9926 11.8107C18.1166 11.678 18.154 11.8613 18.2266 11.9067C18.2953 11.9493 18.29 12.0247 18.2846 12.096C18.2126 12.094 18.1006 12.1067 18.118 12.0267C18.1473 11.89 17.8626 11.9507 17.9933 11.8107H17.9926ZM21.2533 14.4753C20.7453 14.616 20.3066 14.4327 19.848 14.2513C19.6326 14.166 19.332 14.0827 19.3086 14.522C19.3 14.6787 19.2366 14.704 19.0173 14.6147C18.6806 14.4773 18.4566 14.134 18.036 14.1373C17.756 14.1393 17.7873 13.8347 17.8013 13.638C17.8186 13.3987 17.642 13.3413 17.512 13.3633C16.9173 13.4633 16.274 13.304 15.7366 13.7347C15.5826 13.858 15.3426 13.6887 15.054 13.8707C15.2113 13.6213 15.2893 13.53 15.444 13.4953C15.7613 13.4253 16.0413 13.3287 16.0753 12.9047C16.096 12.6527 16.5966 12.6187 16.4713 12.24C16.8246 12.1867 17.178 12.134 17.5313 12.082C17.5313 12.1007 17.53 12.1187 17.5293 12.1373C17.532 12.1387 17.5346 12.14 17.5366 12.142C17.564 12.1687 17.582 12.198 17.5853 12.2367C17.784 12.4493 18.046 12.584 18.2866 12.7447C18.4033 12.8227 18.572 12.9033 18.5466 13.0293C18.518 13.176 18.336 13.2147 18.1793 13.22C18.1206 13.222 18.0526 13.2107 18.016 13.316C18.2226 13.3733 18.334 13.5293 18.404 13.87C18.5073 13.46 18.6373 13.2027 18.8606 13.002C19.054 12.8287 19.2773 12.9267 19.3013 13.082C19.3566 13.4507 19.6693 13.508 19.882 13.6853C19.8813 13.684 19.8806 13.6827 19.88 13.6807C19.884 13.6813 19.888 13.682 19.892 13.6827C19.884 13.5593 19.8313 13.3807 19.8866 13.336C20.0593 13.196 19.9693 13.5333 20.1133 13.498C20.1426 13.4907 20.17 13.4753 20.198 13.46C20.1946 13.4553 20.192 13.4507 20.19 13.4473C20.1806 13.428 20.1853 13.4093 20.196 13.396C20.1306 13.2673 20.1186 13.1013 19.96 13.0407C19.876 13.0087 19.7486 13.0227 19.8213 12.8853C19.848 12.8353 19.9513 12.8273 20.0193 12.8C20.0346 12.934 20.2773 12.838 20.232 12.9687C20.1826 13.112 20.2946 13.25 20.2546 13.3833C20.2606 13.3873 20.266 13.3927 20.27 13.4007C20.274 13.4087 20.278 13.416 20.282 13.424C20.444 13.3527 20.4466 13.392 20.444 13.7767C20.448 13.7773 20.452 13.778 20.4566 13.7787C20.4526 13.7807 20.448 13.7833 20.444 13.7853C20.4413 13.7867 20.4386 13.7887 20.436 13.79C20.4386 13.7907 20.4413 13.792 20.444 13.7927C20.634 13.5893 20.92 13.628 21.1526 13.5467C21.456 13.4407 21.308 13.8333 21.446 13.97C21.656 13.8907 21.902 13.85 21.8493 13.508C21.944 13.7753 21.9566 13.9913 21.8193 14.2707C21.662 14.5907 21.446 14.424 21.252 14.4773L21.2533 14.4753ZM22.3553 16.244C22.2913 16.028 22.124 15.7513 21.952 15.5353C21.868 15.4293 21.7813 15.2953 21.8993 15.2173C22.098 15.0853 22.0413 15.342 22.116 15.408C22.5993 15.836 22.6193 16.5773 23.1726 16.9573C23.3006 17.0453 23.236 17.4113 23.342 17.6333C22.7933 17.3313 22.5346 16.8493 22.3553 16.2433V16.244ZM25.3913 15.528C25.3606 15.7333 25.0866 15.702 24.9146 15.76C24.628 15.8567 24.8746 15.5053 24.65 15.4333C24.39 15.3493 24.2293 15.016 24.25 14.6473C24.5686 14.784 24.546 15.2527 24.9206 15.28C24.958 15.2827 24.9913 15.3313 25.0273 15.3567C25.144 15.438 25.4333 15.246 25.3913 15.528Z" fill="#4DCD5E"/>
<path d="M15.8627 8.54869C15.9527 8.52803 15.9573 8.47536 15.9547 8.42269C15.952 8.37403 15.9493 8.30736 15.872 8.36269C15.8333 8.39003 15.8087 8.44469 15.796 8.49136C15.792 8.50669 15.8447 8.53403 15.8627 8.54869Z" fill="#4DCD5E"/>
<path d="M20.764 3.13397C20.764 3.13397 20.7627 3.13397 20.762 3.13464C20.7634 3.13464 20.7647 3.13597 20.766 3.13664L20.764 3.13397Z" fill="#4DCD5E"/>
<path d="M24.3993 3.93001C24.3993 3.93001 24.3967 3.92601 24.3947 3.92467C24.3947 3.92467 24.3933 3.92401 24.3927 3.92334C24.3907 3.92601 24.3887 3.92934 24.3867 3.93201C24.3913 3.93134 24.3953 3.93067 24.4 3.92934L24.3993 3.93001Z" fill="#4DCD5E"/>
<path d="M24.5327 4.08069C24.582 4.10802 24.5974 4.05536 24.5847 4.01336C24.5527 3.90936 24.4787 3.91536 24.3994 3.93069C24.442 3.98269 24.4747 4.04869 24.5327 4.08136V4.08069Z" fill="#4DCD5E"/>
<path d="M24.392 3.92401C24.4167 3.88934 24.4407 3.85534 24.4647 3.82134C24.3887 3.79401 24.294 3.78134 24.27 3.82001C24.246 3.85801 24.3393 3.89268 24.392 3.92401Z" fill="#4DCD5E"/>
<path d="M5.16068 7.662C5.30001 7.63934 5.42268 7.55267 5.46335 7.426C5.49268 7.33667 5.35935 7.398 5.30935 7.37134C5.23335 7.46267 5.11668 7.54534 5.16001 7.662H5.16068Z" fill="#4DCD5E"/>
<path d="M5.57135 7.79201C5.65935 7.71734 5.69135 7.59201 5.80735 7.54334C5.53002 7.44067 5.57402 7.63734 5.57135 7.79201Z" fill="#4DCD5E"/>
<path d="M4.87599 9.23532C4.97065 9.23598 5.02799 9.16465 5.03132 9.04932C5.03332 8.98332 4.99465 8.95998 4.93199 8.99398C4.85332 9.03665 4.78665 9.09665 4.77932 9.19332C4.77532 9.24665 4.76865 9.30265 4.87599 9.23598V9.23532Z" fill="#4DCD5E"/>
<path d="M5.30603 7.36936C5.30603 7.36936 5.3087 7.37003 5.31003 7.37069C5.31336 7.36669 5.31736 7.36203 5.3207 7.35736C5.32136 7.35736 5.30603 7.36869 5.30603 7.36869V7.36936Z" fill="#4DCD5E"/>
<path d="M1.088 17.1313C1.23733 17.1147 1.34933 17.1767 1.434 17.3027C1.51133 17.4167 1.57467 17.44 1.69 17.4833C1.926 17.572 2.18467 17.6353 2.378 17.9513C2.64667 18.386 3.024 18.4973 3.35467 18.3373C3.38733 18.3213 3.46333 18.344 3.49533 18.3773C3.718 18.6113 3.772 19.0253 3.612 19.266C3.36067 19.6433 3.32933 20.0793 3.54267 20.5747C3.646 20.8127 3.89067 20.9487 4.04533 21.1747C4.33867 21.604 4.62733 22.072 5.154 22.2907C5.34333 22.3693 5.55667 22.5067 5.62267 22.666C5.96133 23.4907 6.20133 24.258 6.40667 24.9393C6.50733 25.2733 6.648 25.5887 6.8 25.886C6.952 26.1827 7.16733 26.464 7.35733 26.7227C7.69867 27.1853 8.358 27.4473 8.91067 27.518C9.18667 27.5547 9.128 27.358 9.45667 27.42C9.37467 27.3887 9.354 27.3773 9.336 27.3747C8.694 27.2813 8.34867 27.0247 8.47133 26.6587C8.506 26.5573 8.42267 26.48 8.25133 26.4533C8.09867 26.4293 8.052 26.3693 8.07667 26.3073C8.20867 25.9733 8.21867 25.974 7.88933 25.674C8.124 25.7873 8.26867 25.8007 8.19667 25.5927C8.15733 25.4767 8.194 25.4467 8.34333 25.4447C8.72333 25.4373 8.77533 25.252 8.496 24.95C8.616 24.9447 8.81867 24.9807 8.84333 24.9273C8.98133 24.6207 9.272 24.348 9.20333 23.9207C9.13867 23.5227 9.42667 23.3713 9.728 23.3167C10.1447 23.2393 10.238 22.9987 10.1673 22.6607C10.0613 22.15 10.1813 21.74 10.538 21.3847C10.6907 21.2333 10.544 20.79 10.3613 20.6607C9.76133 20.2373 9.06533 20.2167 8.43267 19.9467C8.218 19.8547 8.07133 19.7827 7.96667 19.568C7.76667 19.158 7.51067 18.7787 7.02 18.814C6.592 18.8447 6.252 18.46 6.18133 18.2293C6.00067 17.6347 5.71733 17.9847 5.554 18.022C5.26733 18.088 5.23133 18.1213 4.994 17.8207C4.97267 17.794 4.93 17.7607 4.90667 17.7647C4.71267 17.7987 4.51 17.7647 4.32 17.78C3.92133 17.8127 3.76733 18.314 3.27533 18.2213C2.88267 18.1473 2.75267 18.0793 2.76667 17.616C2.77467 17.3907 2.87333 17.0627 2.416 17.1133C2.08333 17.15 2.06533 17.07 2.17733 16.6193C2.18067 16.6067 2.18667 16.5933 2.18667 16.58C2.18467 16.4333 2.27133 16.248 2.16933 16.1527C2.09067 16.0793 1.92867 16.1187 1.80733 16.1287C1.692 16.138 1.67267 16.2467 1.652 16.3673C1.61667 16.5713 1.492 16.6407 1.312 16.6353C0.986 16.6247 0.689333 16.1273 0.788667 15.7613C0.831333 15.602 0.906 15.4573 0.874 15.2447C0.830667 14.976 1.41 14.58 1.60467 14.7353C1.80267 14.8953 1.95067 14.9613 2.06867 14.6353C2.10133 14.5453 2.21133 14.4293 2.27067 14.5147C2.418 14.7247 2.788 14.5933 2.80667 14.976C2.81467 15.1293 2.85467 15.26 2.91467 15.39C2.96267 15.4933 3.05067 15.5567 3.13933 15.506C3.194 15.4747 3.262 15.346 3.244 15.3013C3.174 15.1287 3.26 14.92 3.182 14.7867C2.94867 14.3887 3.26267 14.3273 3.438 14.1393C3.65067 13.9127 4.00267 13.8993 4.08333 13.4093C4.13467 13.098 4.326 12.6173 4.73667 12.53C4.97467 12.4793 5.11067 12.4893 5.11867 12.1493C5.122 12.0187 5.40067 11.926 5.55533 11.8207C5.81133 11.646 5.77533 12.0847 5.95267 11.9373C6.108 11.8073 6.274 11.7727 6.454 11.73C6.604 11.694 6.82867 11.5887 6.84133 11.432C6.86133 11.1853 6.62267 11.302 6.484 11.3007C6.32 11.2993 6.14667 11.1907 6.24 11.0673C6.40333 10.852 6.30133 10.8207 6.17333 10.7887C6.07933 10.7653 6.032 10.736 6.05933 10.628C6.092 10.4987 6.19 10.5153 6.26133 10.5233C6.386 10.538 6.54733 10.4393 6.632 10.586C6.53867 10.5973 6.44533 10.6087 6.31667 10.6247C6.42667 10.7133 6.50067 10.812 6.60333 10.8467C6.76067 10.9 6.73533 10.7787 6.71467 10.6847C6.76667 10.666 6.818 10.6413 6.87067 10.6293C7.00933 10.5967 7.21 10.4993 7.27467 10.5567C7.36 10.632 7.13333 10.7193 7.11 10.8333C7.08333 10.9653 6.87933 11.0053 6.934 11.198C7.23867 11.044 7.40933 11.334 7.66533 11.396C7.984 11.472 7.998 11.182 7.98733 11.1613C7.776 10.7473 7.77933 10.2947 7.8 9.83533C7.80467 9.72866 7.74 9.51599 7.52933 9.47333C7.422 9.45133 7.278 9.26133 7.30933 9.19266C7.45933 8.86333 7.31933 8.63533 7.28 8.37599C7.27067 8.31333 7.358 8.20399 7.24867 8.19333C7.156 8.18399 7.126 8.28733 7.07267 8.35466C6.974 8.47866 6.86467 8.68066 6.706 8.62733C6.49933 8.55866 6.57 8.35333 6.68733 8.16733C6.74467 8.07666 6.81333 7.96933 6.69 7.94666C6.512 7.91399 6.49933 7.78733 6.478 7.64066C6.46733 7.56733 6.39467 7.41266 6.28133 7.52066C6.08067 7.71133 6.12133 7.51399 6.06133 7.47999C6.282 7.43599 6.104 7.13399 6.32733 7.14599C6.50867 7.15533 6.84467 7.05066 6.72467 7.42733C6.69067 7.53466 6.73733 7.55733 6.84133 7.58933C7.00133 7.63866 7.17067 7.73866 7.238 7.88066C7.33733 8.08999 7.28467 7.94599 7.40667 7.85599C7.75667 7.59799 7.684 7.33133 7.75333 7.07133C7.77867 7.06133 7.80933 7.04466 7.82133 7.05133C8.10067 7.21066 8.24733 6.90999 8.40133 6.76266C8.572 6.59933 8.39867 6.52466 8.34133 6.41133C8.27 6.27199 7.95733 6.19399 8.30267 5.89799C8.41067 5.80533 8.412 5.62133 8.31733 5.49533C8.14867 5.27333 7.87267 5.09666 8.08267 4.71866C8.10733 4.67399 8.078 4.58999 7.95 4.55933C7.77467 4.51666 7.49533 4.58266 7.42533 4.50066C7.23867 4.27933 6.998 4.45933 6.76733 4.60266C6.18867 4.96799 6.10667 5.14533 6.33667 5.54266C6.344 5.55466 6.348 5.58399 6.34333 5.58733C6.18 5.69133 6.12933 5.92533 5.91467 5.95399C5.68267 5.98466 5.846 5.82133 5.88333 5.72266C5.894 5.69399 5.886 5.66066 5.872 5.63933C5.71 5.39399 6 4.79933 6.36 4.68399C6.62333 4.59666 6.80067 4.45399 7.07333 4.27999C6.79267 4.34066 6.78667 4.06399 6.542 4.21866C6.328 4.35466 6.33 4.33199 6.31733 4.19666C6.306 4.06599 6.07267 4.22399 5.988 4.17399C5.80267 4.33799 5.422 4.44199 5.39267 4.55866C5.35467 4.71199 5.36333 4.91399 5.44933 5.03866C5.49333 5.10266 5.48467 5.09333 5.434 5.17666C5.27867 5.43266 5.01267 5.37733 4.82933 5.53599C4.798 5.56333 4.72067 5.51799 4.764 5.47999C4.98933 5.27999 4.83533 5.18599 4.834 5.05666C4.832 4.75133 5.184 4.55866 5.41333 4.33933C5.47067 4.28466 5.59733 4.26866 5.60533 4.17666C5.61333 4.08399 5.496 4.12799 5.424 4.12799C5.268 4.12933 5.11867 4.15866 5.02067 4.33933C5.00333 4.37199 4.944 4.40533 4.90467 4.43799C4.88333 4.41399 4.83333 4.38133 4.84533 4.36799C4.89467 4.31066 4.93733 4.27399 4.83333 4.28466C4.68867 4.29933 4.59467 4.28199 4.56333 4.22999C4.12133 4.65799 3.70667 5.11266 3.32 5.59199C3.422 5.57866 3.57333 5.55066 3.514 5.67666C3.44733 5.81933 3.33933 5.68199 3.26467 5.74466C3.24333 5.74133 3.22 5.74266 3.19533 5.74666C1.19333 8.29399 0 11.508 0 15C0 15.602 0.0366667 16.1953 0.105333 16.7787C0.409333 16.9693 0.736 17.17 1.088 17.1313ZM4.176 5.55599C4.24067 5.77999 4.60933 5.54466 4.74933 5.68933C4.58933 5.83933 4.41667 6.03133 4.23733 5.93799C4.126 5.88066 4.02133 5.76599 4.176 5.55599ZM3.81733 7.79733C4.224 7.44466 4.686 7.22799 5.13667 6.96866C5.20133 7.10266 4.89733 7.09399 4.97667 7.24066C5.04467 7.36599 5.18533 7.34533 5.31533 7.35666C5.46 7.13266 5.55 7.32066 5.656 7.31799C5.724 7.31599 5.76867 7.31999 5.82 7.26666C5.88267 7.20066 5.856 7.17399 5.81267 7.12533C5.646 6.93866 5.69467 6.73666 6.00933 6.54399C6.38 6.31799 6.572 6.00333 6.742 5.67599C6.87733 5.71399 7.01067 5.75199 7.15333 5.79199C7.05867 5.86733 6.99067 5.83999 6.92067 5.84799C6.81 5.86066 6.75867 5.93066 6.77533 5.99466C6.79733 6.07999 6.87467 5.98599 6.91867 5.95733C7.05133 5.87133 7.10733 5.93733 7.11533 6.00466C7.13533 6.16666 6.99533 6.03799 6.932 6.10799C6.85867 6.18866 6.70333 6.25799 6.74267 6.34933C6.768 6.40733 6.90133 6.40733 7.01533 6.32866C7.132 6.24866 7.30067 6.17533 7.34933 6.25399C7.42067 6.36866 7.19933 6.44199 7.12467 6.49599C6.91133 6.64999 6.75333 6.94199 6.39933 6.84533C6.26533 6.80799 6.06267 7.21999 5.93067 7.45066C5.89667 7.50999 5.86533 7.53466 5.81 7.54533C5.81 7.54466 5.81133 7.54199 5.81133 7.54199C5.80933 7.54266 5.808 7.54399 5.806 7.54466C5.80733 7.54466 5.808 7.54466 5.80933 7.54599C5.61867 7.86266 5.68533 8.26999 5.252 8.52133C5.2 8.55133 5.23667 8.61266 5.25733 8.65599C5.40067 8.95866 5.24933 9.16399 4.91467 9.33733C4.67867 9.46066 4.51333 9.63199 4.58533 9.92799C4.60333 9.99999 4.45267 10.1527 4.322 10.3653C4.44333 9.96666 4.21133 9.72399 4.43533 9.39466C4.52267 9.26666 4.38 9.33199 4.348 9.32999C4.09333 9.31533 3.922 9.18733 3.84533 8.96933C3.81733 8.88933 3.764 8.86599 3.71267 8.83533C3.30933 8.59799 3.35067 8.20466 3.81667 7.79866L3.81733 7.79733Z" fill="#4DCD5E"/>
<path d="M18.766 8.88733C18.7446 9.01933 18.55 9.12333 18.6753 9.292C18.8653 9.19733 18.806 9.04066 18.766 8.88733Z" fill="#4DCD5E"/>
<path d="M22.0174 5.94669C21.9294 5.94403 21.9514 6.07869 21.99 6.12203C22.1067 6.25136 22.2194 6.18936 22.3227 6.13203C22.286 5.98003 22.1327 5.95069 22.0174 5.94736V5.94669Z" fill="#4DCD5E"/>
<path d="M22.3227 6.13197C22.3227 6.13197 22.324 6.13531 22.324 6.13664C22.3287 6.13931 22.3327 6.14197 22.3374 6.14531C22.3367 6.13864 22.336 6.13264 22.3354 6.12531C22.3314 6.12797 22.3267 6.12997 22.3227 6.13264V6.13197Z" fill="#4DCD5E"/>
<path d="M6.41336 3.83C6.39003 3.91133 6.4147 4 6.5427 3.93533C6.77336 3.81933 6.5887 4.02866 6.68003 4.01066C6.63936 4.152 6.7727 4.16666 6.8907 4.08933C7.01403 4.00933 6.98403 4.05133 7.0107 4.096C7.1487 4.33266 7.56803 4.24666 7.84536 4.332C8.03203 4.38933 8.1367 4.24333 8.26136 4.17133C8.46003 4.05666 8.2347 4.032 8.2687 3.94933C8.46003 3.96666 8.7367 3.96533 8.7987 3.77933C8.92603 3.412 9.31336 3.54266 9.53003 3.38866C9.5327 3.38666 9.6187 3.43866 9.66003 3.47C9.69736 3.498 9.66536 3.54066 9.6127 3.558C9.45736 3.60866 9.33803 3.65133 9.55003 3.696C9.30403 3.838 9.44736 3.958 9.4807 4.04666C9.53936 4.20266 9.82536 4.10333 10.012 4.11733C10.2127 4.13333 10.29 4.21066 10.2354 4.38C10.1494 4.64866 10.048 4.92933 9.94203 5.22333C9.85936 5.44933 9.98603 5.68933 9.66403 5.918C9.5907 5.97 9.64736 6.048 9.69736 6.056C9.8927 6.08866 9.7727 6.14466 9.68403 6.22466C9.4727 6.41666 9.3247 6.654 9.34203 6.88933C9.38003 7.36666 9.15803 7.94 9.69936 8.324C10.022 8.552 10.108 8.43466 10.242 8.186C10.3174 8.04733 10.4187 7.90533 10.506 7.804C10.7627 7.504 10.866 7.02666 11.4247 7.02733C11.484 7.02733 11.6934 6.99666 11.7667 6.89133C12.014 6.53666 12.3607 6.47533 12.7367 6.45066C13.0934 6.42733 13.304 6.14266 13.5747 5.98466C13.7187 5.9 13.6394 5.71533 13.6507 5.57666C13.6614 5.44333 13.7114 5.31466 13.8447 5.19C14.118 4.93666 14.558 4.7 14.218 4.352C14.1667 4.29933 14.1894 4.26866 14.284 4.26533C14.594 4.254 14.5654 4.02 14.5634 3.942C14.5507 3.51333 14.8547 3.25733 15.29 3.05133C15.412 2.994 15.494 2.912 15.3707 2.86133C15.2207 2.8 15.0327 2.752 14.854 2.75666C14.7834 2.75866 14.726 2.77066 14.6874 2.736C14.612 2.66866 14.8134 2.67466 14.7947 2.62133C14.854 2.62333 14.9787 2.62133 14.8807 2.57666C14.724 2.50333 14.6494 2.38266 14.5154 2.338C14.3087 2.268 14.092 2.17266 13.77 2.224C13.4874 2.26933 13.2 2.31133 12.9114 2.35C12.7947 2.36466 12.9454 2.506 12.6867 2.47C12.4834 2.44133 12.2394 2.42733 11.99 2.474C11.8894 2.49266 11.8487 2.47066 11.856 2.432C11.9014 2.18 11.6374 2.13866 11.3167 2.072C11.15 2.03866 10.8794 2.10133 10.8007 1.99933H10.734C10.572 2.056 10.4094 2.18666 10.2347 2.10466C10.11 2.04533 9.99603 2.19733 9.83803 2.172C9.62203 2.13666 9.46803 2.25 9.34003 2.39C9.29803 2.43533 9.40203 2.53066 9.21203 2.52933C9.09536 2.528 9.25403 2.42866 9.2507 2.39066C9.2467 2.344 9.38536 2.26733 9.2687 2.25933C9.21336 2.25533 9.12336 2.29066 9.0407 2.32333C8.6407 2.48266 8.39403 2.70666 8.21403 2.97733C8.15136 3.07133 8.04603 3.19133 8.2587 3.20866C8.45203 3.22333 8.32136 3.364 8.2467 3.436C8.13336 3.546 8.07936 3.42 7.97603 3.44133C8.05536 3.26733 7.92003 3.36266 7.8287 3.42266C7.75936 3.46866 7.72403 3.54733 7.61536 3.554C7.5707 3.26133 7.08736 3.48066 6.85736 3.40533C6.82336 3.394 6.71803 3.45266 6.69536 3.378C6.6867 3.35 6.54003 3.31933 6.4627 3.46066C6.42136 3.53666 6.35403 3.61466 6.29736 3.694C6.43936 3.67066 6.4407 3.73666 6.4147 3.82933L6.41336 3.83Z" fill="#4DCD5E"/>
<path d="M8.39201 2.49268C8.38668 2.60135 8.24468 2.47602 8.22868 2.56402C8.22335 2.59402 8.25135 2.62802 8.29001 2.63668C8.35601 2.65135 8.39801 2.60535 8.41535 2.56735C8.42735 2.54002 8.49735 2.49202 8.39201 2.49268Z" fill="#4DCD5E"/>
<path d="M6.84867 2.67399C6.77267 2.69665 6.698 2.63932 6.62934 2.73865C6.60667 2.77132 6.88667 2.71665 6.63267 2.82599C6.516 2.87665 6.46334 2.85532 6.42467 2.80399C6.40134 2.77265 6.30534 2.78865 6.29067 2.84265C6.268 2.92399 6.26067 3.01465 6.30334 3.07265C6.342 3.12532 6.46734 3.07399 6.56867 3.01599C6.64867 2.96999 6.73867 2.90732 6.81467 2.89132C6.99467 2.85399 6.96334 2.78465 6.99467 2.72332C7.04667 2.62132 6.88534 2.70132 6.84934 2.67399H6.84867Z" fill="#4DCD5E"/>
<path d="M5.95535 3.034C5.91068 3.068 5.86602 3.102 5.82135 3.13666C5.88002 3.146 5.92335 3.18133 5.98802 3.17933C6.08402 3.08733 5.92268 3.10733 5.95468 3.034H5.95535Z" fill="#4DCD5E"/>
<path d="M5.57001 3.82266C5.71668 3.83866 5.89601 3.80932 6.05868 3.80599C6.15268 3.80399 6.22801 3.78066 6.28334 3.69599C6.28334 3.69599 6.28334 3.69666 6.28468 3.69799C6.28601 3.69999 6.28734 3.70199 6.28868 3.70399C6.29134 3.70066 6.29334 3.69732 6.29601 3.69399C6.29201 3.69399 6.28934 3.69466 6.28534 3.69532C6.23134 3.54132 6.11401 3.41332 6.27401 3.21332C6.00068 3.21732 5.96868 3.49199 5.71934 3.53799C5.84001 3.28399 5.85668 3.24199 5.73001 3.20532C5.50801 3.37999 5.29201 3.56132 5.08001 3.74799C5.08001 3.76199 5.08001 3.77532 5.07668 3.79066C5.04401 3.97866 5.40201 3.80266 5.56868 3.82132L5.57001 3.82266Z" fill="#4DCD5E"/>
<path d="M7.98401 2.85399C8.00735 2.80999 7.87601 2.94399 7.79135 2.93932C7.93268 2.75799 7.87868 2.62932 7.70735 2.59332C7.59001 2.56732 7.44535 2.78666 7.36935 2.80799C7.04068 2.89332 7.31735 2.91332 7.29735 2.95732C7.22135 3.11999 7.24335 3.11199 7.28801 3.12666C7.43201 3.17666 7.55535 3.10066 7.67735 2.99932C7.51601 3.31532 7.51668 3.32266 7.85068 3.31599C7.85068 3.23199 7.91801 3.15732 8.02001 3.08399C8.20735 2.94999 7.92668 2.96332 7.98468 2.85332L7.98401 2.85399Z" fill="#4DCD5E"/>
<path d="M6.92469 3.04268C6.78203 3.09601 6.74203 3.17601 6.73669 3.26134C6.90269 3.23868 6.81603 3.15934 6.92803 3.11668C7.07403 3.06134 6.95136 3.03268 6.92469 3.04268Z" fill="#4DCD5E"/>
<path d="M24.9327 17.9327C25.046 17.9313 25.1593 17.93 25.2967 17.928C25.1807 17.6893 25.048 17.902 24.9327 17.9327Z" fill="#4DCD5E"/>
<path d="M24.0227 21.6993C23.9353 21.6933 23.8967 21.7833 23.8627 21.864C23.7687 22.0893 23.5593 22.1747 23.3427 22.2567C23.244 22.294 23.106 22.3193 23.0887 22.4487C23.0467 22.7547 22.8467 23.026 22.7733 23.3073C22.732 23.494 22.672 23.708 22.938 23.7167C23.13 23.7227 23.334 23.6167 23.4387 23.402C23.52 23.234 23.6787 23.0793 23.7467 22.9053C23.8747 22.5747 24.248 22.2747 24.124 21.878C24.1013 21.8053 24.108 21.7047 24.0227 21.6987V21.6993Z" fill="#4DCD5E"/>
<path d="M13.412 15.206C13.2787 15.09 13.166 14.9493 12.9827 14.9847C12.9667 14.988 12.9467 15.1127 12.972 15.1547C13.0834 15.342 13.2747 15.0627 13.412 15.206Z" fill="#4DCD5E"/>
<path d="M13.4194 7.71866C13.7074 7.70266 13.96 7.60066 14.178 7.45666C14.3147 7.36666 14.3427 7.20532 14.316 7.04532C14.2987 6.93732 14.27 6.90199 14.1547 6.92466C13.932 6.96799 13.6887 6.87266 13.4907 7.08999C13.4494 7.13599 13.3214 7.18132 13.3294 7.05466C13.3454 6.81799 13.1507 6.94866 13.1027 6.98999C13.04 7.04466 12.876 7.13666 12.9454 7.20399C13.11 7.36066 13.044 7.72932 13.4187 7.71932L13.4194 7.71866Z" fill="#4DCD5E"/>
<path d="M12.0673 17.284C12.0486 17.3314 11.8666 17.412 12.082 17.4034C12.262 17.396 12.1613 17.2314 12.1126 17.1247C12.098 17.178 12.0873 17.2334 12.0673 17.284Z" fill="#4DCD5E"/>
<path d="M4.19331 16.4766C4.11997 16.5273 3.95331 16.5966 3.98731 16.754C4.01597 16.8853 4.15331 16.8266 4.23931 16.8593C4.46597 16.946 4.67064 16.724 4.97864 16.9106C4.78197 16.5113 4.41864 16.3206 4.19331 16.4766Z" fill="#4DCD5E"/>
<path d="M4.12066 16.2687C4.25933 16.2973 4.27066 16.186 4.24866 16.0907C4.20266 15.8893 4.04466 16.0087 3.93866 15.9493C3.98399 16.0767 4.20999 16.066 4.12066 16.2687Z" fill="#4DCD5E"/>
<path d="M3.66202 15.3647C3.67602 15.358 3.67669 15.256 3.66135 15.246C3.56602 15.1874 3.49135 15.278 3.39935 15.2987C3.49002 15.3334 3.56869 15.4087 3.66202 15.3647Z" fill="#4DCD5E"/>
<path d="M2.80935 15.93C2.72135 15.948 2.61469 15.88 2.54069 15.9687C2.52469 15.988 2.53935 16.082 2.55469 16.0893C2.66135 16.138 2.74802 16.2747 2.89135 16.1593C3.06202 16.022 3.39002 16.2187 3.40202 16.2547C3.55202 16.73 3.82135 16.368 4.02269 16.4367C3.64935 16.1213 3.28269 15.8313 2.80935 15.93Z" fill="#4DCD5E"/>
<path d="M9.34334 27.0073C9.34001 27.0433 9.39734 27.0753 9.47067 27.0806C9.61867 27.0913 9.75067 27.0953 9.67801 26.95C9.55201 26.9746 9.35401 26.8953 9.34334 27.0073Z" fill="#4DCD5E"/>
<path d="M6.018 17.7014C6.046 17.4634 6.09933 17.2214 5.88733 17.004C5.92866 17.2374 5.972 17.47 6.018 17.7014Z" fill="#4DCD5E"/>
<path d="M3.36731 16.684C3.50198 16.7734 3.51064 16.99 3.68664 16.934C3.74731 16.9147 3.75464 16.8487 3.73531 16.7954C3.65664 16.5814 3.51998 16.706 3.36731 16.684Z" fill="#4DCD5E"/>
<path d="M3.45064 15.5587C3.46131 15.6693 3.40798 15.7727 3.53731 15.8627C3.50064 15.7733 3.66931 15.628 3.45064 15.5587Z" fill="#4DCD5E"/>
<path d="M5.04669 16.7287C5.11203 16.878 5.20336 16.8967 5.30003 16.868C5.32136 16.862 5.34403 16.7753 5.33269 16.7627C5.25136 16.674 5.15803 16.7 5.04669 16.7287Z" fill="#4DCD5E"/>
</g>
<defs>
<clipPath id="clip0_153_4985">
<rect width="30" height="30" fill="white"/>
</clipPath>
</defs>
</svg>
