<svg xmlns="http://www.w3.org/2000/svg" width="222" height="50" viewBox="0 0 222 50">
  <g id="Group_5375" data-name="Group 5375" transform="translate(-140 -24)">
    <rect id="Rectangle_3676" data-name="Rectangle 3676" width="2.55" height="29.988" transform="translate(313.9 37.075)"/>
    <path id="Path_7665" data-name="Path 7665" d="M941.089,7446.25h-2.683v-14.112h-4.828v-2.3h12.338v2.3h-4.827Z" transform="translate(-595.715 -7385.933)"/>
    <path id="Path_7666" data-name="Path 7666" d="M827.2,7418.68c10.633,6.019,13.108,19.519,5.71,33.173-6.5,12.005-20.7,17.132-31.277,11.02s-12.646-23.163-8.1-32.976c6.6-14.249,21.917-17.868,33.666-11.216" transform="translate(-651.258 -7391.461)" fill="#007fa3"/>
    <path id="Path_7667" data-name="Path 7667" d="M824.627,7426.589a10.539,10.539,0,0,1,2.368,8.36,11.141,11.141,0,0,1-5.5,8.007,18.124,18.124,0,0,1-9.094,2.176c-.025.516-.129,2.3-.18,2.578a1.847,1.847,0,0,1-.4.873,3.009,3.009,0,0,1-1.561.921,4.972,4.972,0,0,1-1.289.195.977.977,0,0,1-.166-.011,1.617,1.617,0,0,1-.991-.478,1.672,1.672,0,0,1-.414-1l-.027-.352c-.068-.3-.449-15.626-.375-15.354.056-1.836,3.019-2.155,4.628-1.833s1.2,2.286,1.16,4.692c0,0-.077,3.165-.226,6.51a12.424,12.424,0,0,0,5.21-1.422,7.639,7.639,0,0,0,4.711-7.321c0-3.452-3.359-7.316-9.557-7.316s-8.856,1.562-11.857,4.043c-.675.561-1.2,1.125-1.691,1.5s-1.8.428-2.151-.441c-.422-1.045.368-2.213.832-2.78a16.463,16.463,0,0,1,4.519-3.712,19.509,19.509,0,0,1,8.958-2.571c3.518-.088,9.069.2,13.068,4.714m-13.412,25.4a2.582,2.582,0,0,0-1.054-.5,2.135,2.135,0,0,0-.377-.036,2.254,2.254,0,0,0-1.814,1.019,2.442,2.442,0,0,0-.424,1.782,2,2,0,0,0,.426.987,2.168,2.168,0,0,0,1.078.638,3,3,0,0,0,.816.113,2.422,2.422,0,0,0,1.55-.518,1.978,1.978,0,0,0,.744-1.583,2.455,2.455,0,0,0-.945-1.9" transform="translate(-648.934 -7389.248)" fill="#fff"/>
    <path id="Path_7668" data-name="Path 7668" d="M870.068,7445.231a3.134,3.134,0,0,1-.527.086c-.909,0-1.185-.76-1.185-1.939v-8.754c0-3.306-1.971-4.982-5.86-4.982-3.482,0-6.211,1.649-6.211,3.751a1.83,1.83,0,0,0,1.873,1.994,1.934,1.934,0,0,0,2.016-1.887,2.641,2.641,0,0,0-.865-1.933,4.105,4.105,0,0,1,2.942-1.022c2.02,0,2.882,1.2,2.882,4.009v2.138c-3.775.979-9.41,1.719-9.41,6.018,0,1.83,1.158,3.881,4.42,3.881a7.035,7.035,0,0,0,5.15-2.576c.159,1.871.91,2.576,2.6,2.576a5.2,5.2,0,0,0,2.4-.614.45.45,0,0,0,.239-.55c-.076-.223-.282-.23-.459-.2m-4.934-2.476c-.412.622-1.816,2.194-3.429,2.194-2.063,0-2.515-1.529-2.515-2.812,0-2.113,1.616-3.359,5.943-4.427Z" transform="translate(-626.077 -7386.011)"/>
    <path id="Path_7669" data-name="Path 7669" d="M877.044,7429.642c-1.6,0-3.141.9-4.464,3.061v-2.418a.442.442,0,0,0-.471-.459l-4.3.112a.384.384,0,0,0-.368.4.38.38,0,0,0,.317.4c1.416.2,1.6.871,1.6,1.567v12.044c0,.855-.217,1.135-1.577,1.221a.376.376,0,0,0,.024.752h6.716a.371.371,0,0,0,.373-.369.377.377,0,0,0-.359-.377c-1.554-.072-1.957-.326-1.957-1.226v-9.9a5.379,5.379,0,0,1,3.243-3.092,2.917,2.917,0,0,0-.109.736,2.015,2.015,0,1,0,4.03,0,2.416,2.416,0,0,0-2.7-2.453" transform="translate(-621.498 -7386.01)"/>
    <path id="Path_7670" data-name="Path 7670" d="M915.806,7445.573c-1.36-.085-1.577-.367-1.577-1.22v-9.833c0-3.1-1.649-4.877-4.692-4.877a6.864,6.864,0,0,0-5.738,3.232v-2.589a.442.442,0,0,0-.473-.459l-4.3.112a.383.383,0,0,0-.368.4.378.378,0,0,0,.316.4c1.416.2,1.6.871,1.6,1.567v12.046c0,.853-.217,1.133-1.575,1.22a.376.376,0,0,0,.024.75h6.182a.376.376,0,0,0,.024-.75c-1.3-.083-1.433-.37-1.433-1.22v-9.369c.992-2.02,2.733-3.534,4.42-3.534,2.072,0,2.789,1.125,2.789,4.016v8.887c0,.841-.175,1.118-1.271,1.213a.38.38,0,0,0,.032.757h6.012a.376.376,0,0,0,.025-.75" transform="translate(-609.32 -7386.01)"/>
    <path id="Path_7671" data-name="Path 7671" d="M894.662,7429.642a8.484,8.484,0,1,0,8.088,8.475,8.208,8.208,0,0,0-8.088-8.475m0,16.06c-3.5,0-4.446-3.4-4.446-7.584s.948-7.585,4.446-7.585,4.446,3.4,4.446,7.585-.948,7.584-4.446,7.584" transform="translate(-614.032 -7386.011)"/>
    <path id="Path_7672" data-name="Path 7672" d="M830.545,7425.871c2.491.241,3.025,1.1,3.025,2.332v16.806c0,1.225-.534,2.089-3.025,2.333a.367.367,0,0,0-.352.4.386.386,0,0,0,.379.4h9.819a.386.386,0,0,0,.377-.4.364.364,0,0,0-.352-.4c-2.675-.2-3.241-1.053-3.241-2.333v-6.1h3.042c4.333,0,9.376-1.254,9.376-6.929,0-5.6-5.4-6.916-9.931-6.916h-9.09a.387.387,0,0,0-.379.4.369.369,0,0,0,.352.4m6.63.263h2.538c5.078,0,5.816,2.813,5.816,5.847,0,3.064-.738,5.847-5.816,5.847h-2.538Z" transform="translate(-636.056 -7387.8)"/>
    <path id="Path_7673" data-name="Path 7673" d="M851.68,7429.642c-4.275,0-7.751,3.883-7.751,8.642,0,4.813,3.26,8.309,7.751,8.309a7,7,0,0,0,6.588-3.795c.165-.318.119-.642-.076-.753a.4.4,0,0,0-.517.133c-1.206,1.624-2.6,2.748-4.7,2.748-4.745,0-5.679-4.878-5.478-7.835h10.33c.517,0,.611-.3.611-.816,0-2.293-1.18-6.632-6.758-6.632m-4.124,6.366c.358-3.509,1.775-5.431,3.927-5.431,2.884,0,3.385,2.435,3.385,4.42,0,.353-.016.663-.041,1.011Z" transform="translate(-630.684 -7386.012)"/>
    <path id="Path_7674" data-name="Path 7674" d="M883.5,7436.208c-2.923-.849-4.128-1.673-4.128-3.005a2.665,2.665,0,0,1,2.861-2.628c1.905,0,3.141,1.016,4.747,4.1.109.21.207.352.429.352.263,0,.4-.187.4-.521v-4.38c0-.312-.059-.479-.278-.479a.581.581,0,0,0-.4.22l-.7.716a8.127,8.127,0,0,0-3.608-.936c-3.409,0-5.72,2.12-5.72,5.136,0,2.831,1.935,3.825,5.12,4.768,3.132.928,4.266,1.759,4.266,3.428a2.9,2.9,0,0,1-3.07,2.685c-2.372,0-3.953-1.193-5.538-4.631-.1-.214-.221-.412-.445-.412-.264,0-.4.186-.4.52v5c0,.295.122.459.3.459a.6.6,0,0,0,.425-.223l.977-.953a8.071,8.071,0,0,0,4.307,1.176c3.492,0,5.53-2.22,5.53-5.4,0-2.583-1.357-3.9-5.083-4.98" transform="translate(-617.742 -7386.011)"/>
    <path id="Path_7675" data-name="Path 7675" d="M935.642,7434.8a4.786,4.786,0,0,1-1.683,3.939,7.424,7.424,0,0,1-4.794,1.371h-1.707v6.141h-2.682v-16.415H929.5a7.151,7.151,0,0,1,4.609,1.257,4.518,4.518,0,0,1,1.532,3.707m-8.184,3.051h1.426a5.114,5.114,0,0,0,3.032-.717,2.614,2.614,0,0,0,.964-2.246,2.547,2.547,0,0,0-.864-2.11,4.263,4.263,0,0,0-2.694-.7h-1.865Z" transform="translate(-599.216 -7385.933)"/>
    <path id="Path_7676" data-name="Path 7676" d="M953.488,7446.25H944.2v-16.415h9.284v2.27h-6.6v4.468h6.186v2.244h-6.186v5.152h6.6Z" transform="translate(-591.488 -7385.933)"/>
  </g>
</svg>
