<svg width="48" height="30" viewBox="0 0 48 30" fill="none" xmlns="http://www.w3.org/2000/svg">
<g clip-path="url(#clip0_153_4886)">
<path d="M48 0H0V30H48V0Z" fill="#262B82"/>
<path d="M29.9628 0.00321268V1.68344L23.3197 5.01821H29.9628V10.03H23.3293L29.9628 13.3615V15.045H26.614L17.4802 10.4573V15.045H12.4858V10.4573L3.35196 15.045H0.00960448L0.00640299 15.0482V15.0514L0 15.045H0.00640299V13.3583L6.6367 10.03H0V5.01821H6.6463L0.00640299 1.68344V0.00321268H3.36157L12.4858 4.58449V0H17.4802V4.58449L26.6044 0.00321268H29.9628Z" fill="white"/>
<path d="M19.9767 5.01823L23.0821 3.46008L23.0885 3.45365L29.5587 0.205634L29.5651 0.202421L29.9589 0.00323486H27.7179L17.7324 5.01823H19.9767Z" fill="#DE0334"/>
<path d="M9.99772 5.01823L6.0823 3.05528L6.07909 3.04886L0.00906087 0.00323486H0.00585938V1.12446L7.75988 5.01823H9.99772Z" fill="#DE0334"/>
<path d="M10.0207 10.0172L3.64971 13.2138L3.64331 13.2202L0.00961304 15.045H2.23465L12.2457 10.0172H10.0207Z" fill="#DE0334"/>
<path d="M29.9628 6.02056H17.9796H16.4813V5.01821V3.61748V0H13.4815V3.61748V5.01821V6.02056H11.9928H9.75495H0V9.02763H11.9896L11.9672 9.04048H13.4815V15.045H16.4813V9.04048V9.02763H17.9828L18.0084 9.04048H20.2398L20.2174 9.02763H29.9628V6.02056Z" fill="#DE0334"/>
<path d="M19.9553 10.0172L25.5099 12.8058L25.5163 12.8122L29.9631 15.045V13.9206L22.1899 10.0172H19.9553Z" fill="#DE0334"/>
<path d="M38.9976 6.26474L38.4662 7.89999L39.8524 6.888L41.2419 7.89999L40.7104 6.26474L42.0967 5.25275H40.3839L39.8524 3.61749L39.3242 5.25275H37.6114L38.9976 6.26474Z" fill="white"/>
<path d="M46.4827 11.3858L47.7153 10.4862H46.1914L45.7208 9.03088L45.247 10.4862H43.7231L44.9556 11.3858L44.485 12.8411L45.7208 11.9416L46.9534 12.8411L46.4827 11.3858Z" fill="white"/>
<path d="M33.3918 12.3142L32.8604 10.6757L32.3321 12.3142H30.6193L32.0056 13.323L31.4741 14.9582L32.8604 13.9494L34.2498 14.9582L33.7184 13.323L35.1046 12.3142H33.3918Z" fill="white"/>
<path d="M40.3006 23.1667L39.7116 21.3515L39.1257 23.1667H37.2208L38.7607 24.2879L38.1716 26.1031L39.7116 24.9818L41.2515 26.1031L40.6624 24.2879L42.2023 23.1667H40.3006Z" fill="white"/>
<path d="M39.2848 6.17156L38.9359 7.25102L39.8515 6.58279L40.7703 7.25102L40.4182 6.17156L41.3338 5.50333H40.2037L39.8515 4.42065L39.5025 5.50333H38.3692L39.2848 6.17156Z" fill="#E20C24"/>
<path d="M46.1908 11.2894L46.9559 10.7336H46.0115L45.7202 9.83405L45.4256 10.7336H44.4844L45.2463 11.2894L44.955 12.1922L45.7202 11.6331L46.4821 12.1922L46.1908 11.2894Z" fill="#E20C24"/>
<path d="M33.2116 12.5616L32.8594 11.4789L32.5105 12.5616H31.3771L32.296 13.2266L31.9438 14.3093L32.8594 13.641L33.7783 14.3093L33.4261 13.2266L34.3449 12.5616H33.2116Z" fill="#E20C24"/>
<path d="M40.1192 23.414L39.7095 22.1547L39.3029 23.414H37.9807L39.05 24.1947L38.6434 25.4541L39.7095 24.6766L40.7788 25.4541L40.3722 24.1947L41.4415 23.414H40.1192Z" fill="#E20C24"/>
</g>
<defs>
<clipPath id="clip0_153_4886">
<rect width="48" height="30" rx="2" fill="white"/>
</clipPath>
</defs>
</svg>
