<svg width="48" height="30" viewBox="0 0 48 30" fill="none" xmlns="http://www.w3.org/2000/svg">
<g clip-path="url(#clip0_153_4910)">
<path d="M47.9968 0H0V30H47.9968V0Z" fill="#1D2C77"/>
<path d="M47.9968 0.00963804V3.35082L37.355 10.0011H47.9968V19.9893H37.3678L47.9968 26.6267V29.9807H42.6311L28.0003 20.8407V29.9807H19.9997V20.8407L5.3657 29.9807H0.012806L0.00960448 29.9904V30L0 29.9807H0.00960448V26.6235L10.6322 19.9893H0V10.0011H10.645L0.00960448 3.35725V0.00963804H5.38171L19.9997 9.14007V0H28.0003V9.14007L42.6183 0.00963804H47.9968Z" fill="white"/>
<path d="M31.9983 10.0075L36.9766 6.89763L36.9863 6.88799L47.3527 0.411228L47.3591 0.40159L47.9898 0.00964355H44.4041L28.4062 10.0075H31.9983Z" fill="#DE0334"/>
<path d="M16.014 10.0075L9.74551 6.09125L9.73911 6.08161L0.0129671 0.00964355H0.00976562V2.24246L12.4316 10.0075H16.014Z" fill="#DE0334"/>
<path d="M16.05 19.9797L5.84359 26.3536L5.84039 26.3633L0.0136719 30H3.58014L19.6132 19.9797H16.05Z" fill="#DE0334"/>
<path d="M31.9631 19.9797L40.8632 25.5376L40.8696 25.5472L47.9994 30V27.7576L35.5455 19.9797H31.9631Z" fill="#DE0334"/>
<path d="M48 12.0026H26.3995V0H21.5973V12.0026H0V18.0039H21.5973V30H26.3995V18.0039H48V12.0026Z" fill="#DE0334"/>
</g>
<defs>
<clipPath id="clip0_153_4910">
<rect width="48" height="30" rx="2" fill="white"/>
</clipPath>
</defs>
</svg>
