<svg width="48" height="30" viewBox="0 0 48 30" fill="none" xmlns="http://www.w3.org/2000/svg">
<g clip-path="url(#clip0_153_4922)">
<path d="M48 0H0V30H48V0Z" fill="white"/>
<path d="M22.6954 0H0V16.1534H22.6954V0Z" fill="#3C3B6E"/>
<path d="M48 18.4568H0V20.7668H48V18.4568Z" fill="#AF2333"/>
<path d="M48 23.0735H0V25.3834H48V23.0735Z" fill="#AF2333"/>
<path d="M48 27.6869H0V29.9968H48V27.6869Z" fill="#AF2333"/>
<path d="M47.9999 0H22.6953V2.30992H47.9999V0Z" fill="#AF2333"/>
<path d="M1.94041 0.674683L1.73552 1.31401H1.06641L1.60426 1.70595L1.40256 2.33885L1.94041 1.9469L2.47827 2.33885L2.27337 1.70595L2.81442 1.31401H2.14531L1.94041 0.674683Z" fill="white"/>
<path d="M5.70604 0.674683L5.49474 1.31401H4.83203L5.36988 1.70274L5.16179 2.33885L5.70284 1.9469L6.24389 2.33885L6.03899 1.70595L6.58005 1.31401H5.91093L5.70604 0.674683Z" fill="white"/>
<path d="M9.46385 0.674683L9.25575 1.31401H8.58984L9.1309 1.70595L8.926 2.33885L9.46705 1.94369L10.0081 2.33885L9.80001 1.70274L10.3379 1.31401H9.67195L9.46385 0.674683Z" fill="white"/>
<path d="M13.2256 0.674683L13.0207 1.31401H12.3516L12.8926 1.70595L12.6877 2.33885L13.2256 1.9469L13.7666 2.33885L13.5617 1.70595L14.0996 1.31401H13.4337L13.2256 0.674683Z" fill="white"/>
<path d="M16.9892 0.674683L16.7843 1.31401H16.1152L16.6563 1.70595L16.4514 2.33885L16.9892 1.9469L17.5271 2.33885L17.3254 1.70595L17.8632 1.31401H17.1973L16.9892 0.674683Z" fill="white"/>
<path d="M20.4187 1.70274L20.2106 2.33885L20.7517 1.94369L21.2927 2.33885L21.0846 1.70274L21.6225 1.31401H20.9598L20.7549 0.674683L20.5436 1.31401H19.8809L20.4187 1.70274Z" fill="white"/>
<path d="M3.82572 2.28748L3.61442 2.93322H2.94531L3.48316 3.32517L3.28147 3.95807L3.82252 3.56933L4.36357 3.95807L4.15868 3.32517L4.69973 2.93322H4.03062L3.82572 2.28748Z" fill="white"/>
<path d="M7.58815 2.28748L7.37685 2.93322H6.71094L7.24879 3.32196L7.04069 3.95807L7.58495 3.56612L8.1292 3.95807L7.9211 3.32517L8.46216 2.93322H7.79624L7.58815 2.28748Z" fill="white"/>
<path d="M11.3479 2.28748L11.143 2.93322H10.4707L11.015 3.32517L10.8069 3.95807L11.3479 3.56612L11.8922 3.95807L11.6841 3.32517L12.2219 2.93322H11.5592L11.3479 2.28748Z" fill="white"/>
<path d="M15.1113 2.28748L14.9064 2.93322H14.2341L14.7752 3.32517L14.5671 3.95807L15.1113 3.56612L15.6492 3.95807L15.4475 3.32517L15.9853 2.93322H15.3194L15.1113 2.28748Z" fill="white"/>
<path d="M18.8765 2.28748L18.6652 2.93322H17.9961L18.5403 3.32517L18.3323 3.95807L18.8765 3.56612L19.4144 3.95807L19.2095 3.32517L19.7505 2.93322H19.0846L18.8765 2.28748Z" fill="white"/>
<path d="M1.94041 3.90985L1.73552 4.54917H1.06641L1.60426 4.94433L1.40256 5.58044L1.94041 5.1885L2.47827 5.58044L2.27337 4.94433L2.81442 4.54917H2.14531L1.94041 3.90985Z" fill="white"/>
<path d="M5.70604 3.90985L5.49794 4.54917H4.83203L5.36988 4.94433L5.16179 5.58044L5.70284 5.1885L6.24389 5.58044L6.03899 4.94433L6.58005 4.54917H5.91093L5.70604 3.90985Z" fill="white"/>
<path d="M9.46385 3.90985L9.25896 4.54917H8.58984L9.1309 4.94433L8.926 5.58044L9.46705 5.18528L10.0081 5.58044L9.80001 4.94433L10.3379 4.54917H9.67195L9.46385 3.90985Z" fill="white"/>
<path d="M13.2256 3.90985L13.0207 4.54917H12.3516L12.8926 4.94433L12.6877 5.58044L13.2256 5.1885L13.7666 5.58044L13.5617 4.94433L14.0996 4.54917H13.4337L13.2256 3.90985Z" fill="white"/>
<path d="M16.9892 3.90985L16.7843 4.54917H16.1152L16.6563 4.94433L16.4514 5.58044L16.9892 5.1885L17.5271 5.58044L17.3254 4.94433L17.8632 4.54917H17.1941L16.9892 3.90985Z" fill="white"/>
<path d="M20.7549 3.90985L20.5468 4.54917H19.8809L20.4187 4.94433L20.2106 5.58044L20.7517 5.18528L21.2927 5.58044L21.0846 4.94433L21.6225 4.54917H20.9598L20.7549 3.90985Z" fill="white"/>
<path d="M3.82572 5.53223L3.61442 6.17155H2.94531L3.48637 6.5635L3.28147 7.20282L3.82252 6.80766L4.36357 7.20282L4.15868 6.5635L4.69973 6.17155H4.03062L3.82572 5.53223Z" fill="white"/>
<path d="M7.58815 5.53223L7.37685 6.17155H6.71094L7.24879 6.56028L7.04069 7.20282L7.58495 6.80445L8.1292 7.20282L7.9211 6.5635L8.46216 6.17155H7.79624L7.58815 5.53223Z" fill="white"/>
<path d="M11.3479 5.53223L11.143 6.17155H10.4707L11.015 6.56028L10.8069 7.20282L11.3479 6.80445L11.8922 7.20282L11.6841 6.5635L12.2219 6.17155H11.5592L11.3479 5.53223Z" fill="white"/>
<path d="M15.1113 5.53223L14.9064 6.17155H14.2341L14.7752 6.5635L14.5671 7.20282L15.1113 6.80445L15.6492 7.20282L15.4475 6.5635L15.9853 6.17155H15.3194L15.1113 5.53223Z" fill="white"/>
<path d="M18.8765 5.53223L18.6652 6.17155H17.9961L18.5403 6.5635L18.3323 7.20282L18.8765 6.80445L19.4144 7.20282L19.2095 6.56028L19.7505 6.17155H19.0814L18.8765 5.53223Z" fill="white"/>
<path d="M1.94041 7.15143L1.73552 7.79396H1.06641L1.60426 8.18591L1.40256 8.81881L1.94041 8.42686L2.47827 8.81881L2.27337 8.18591L2.81442 7.79396H2.14531L1.94041 7.15143Z" fill="white"/>
<path d="M5.70604 7.15143L5.49474 7.79396H4.83203L5.36988 8.1827L5.16179 8.81881L5.70284 8.42365L6.24389 8.81881L6.03899 8.18591L6.58005 7.79396H5.91093L5.70604 7.15143Z" fill="white"/>
<path d="M9.46385 7.15143L9.25575 7.79396H8.58984L9.1309 8.18591L8.926 8.81881L9.46705 8.42365L10.0081 8.81881L9.80001 8.1827L10.3379 7.79396H9.67195L9.46385 7.15143Z" fill="white"/>
<path d="M13.2256 7.15143L13.0207 7.79396H12.3516L12.8926 8.18591L12.6877 8.81881L13.2256 8.42686L13.7666 8.81881L13.5617 8.18591L14.0996 7.79396H13.4337L13.2256 7.15143Z" fill="white"/>
<path d="M16.9892 7.15143L16.7843 7.79396H16.1152L16.6563 8.18591L16.4514 8.81881L16.9892 8.42686L17.5271 8.81881L17.3254 8.18591L17.8632 7.79396H17.1973L16.9892 7.15143Z" fill="white"/>
<path d="M20.7549 7.15143L20.5436 7.79396H19.8809L20.4187 8.1827L20.2106 8.81881L20.7517 8.42365L21.2927 8.81881L21.0846 8.1827L21.6225 7.79396H20.9598L20.7549 7.15143Z" fill="white"/>
<path d="M3.82572 8.76746L3.61442 9.4132H2.94531L3.48316 9.80515L3.28147 10.438L3.82252 10.0493L4.36357 10.438L4.15868 9.80515L4.69973 9.4132H4.03062L3.82572 8.76746Z" fill="white"/>
<path d="M7.58815 8.76746L7.37685 9.4132H6.71094L7.24879 9.80194L7.04069 10.438L7.58495 10.0461L8.1292 10.438L7.9211 9.80515L8.46216 9.4132H7.79624L7.58815 8.76746Z" fill="white"/>
<path d="M11.3479 8.76746L11.143 9.4132H10.4707L11.015 9.80515L10.8069 10.438L11.3479 10.0461L11.8922 10.438L11.6841 9.80515L12.2219 9.4132H11.5592L11.3479 8.76746Z" fill="white"/>
<path d="M15.1113 8.7674L14.9064 9.41314H14.2341L14.7752 9.80509L14.5671 10.438L15.1113 10.046L15.6492 10.438L15.4475 9.80509L15.9853 9.41314H15.3194L15.1113 8.7674Z" fill="white"/>
<path d="M18.8765 8.76746L18.6652 9.4132H17.9961L18.5403 9.80515L18.3323 10.438L18.8765 10.0461L19.4144 10.438L19.2095 9.80515L19.7505 9.4132H19.0846L18.8765 8.76746Z" fill="white"/>
<path d="M1.94041 10.3898L1.73552 11.0292H1.06641L1.60426 11.4243L1.40256 12.0604L1.94041 11.6685L2.47827 12.0604L2.27337 11.4243L2.81442 11.0292H2.14531L1.94041 10.3898Z" fill="white"/>
<path d="M5.70604 10.3898L5.49474 11.0292H4.83203L5.36988 11.4243L5.16179 12.0604L5.70284 11.6685L6.24389 12.0604L6.03899 11.4243L6.58005 11.0292H5.91093L5.70604 10.3898Z" fill="white"/>
<path d="M9.46385 10.3898L9.25575 11.0292H8.58984L9.1309 11.4243L8.926 12.0604L9.46705 11.6653L10.0081 12.0604L9.80001 11.4243L10.3379 11.0292H9.67195L9.46385 10.3898Z" fill="white"/>
<path d="M13.2256 10.3898L13.0207 11.0292H12.3516L12.8926 11.4243L12.6877 12.0604L13.2256 11.6685L13.7666 12.0604L13.5617 11.4243L14.0996 11.0292H13.4337L13.2256 10.3898Z" fill="white"/>
<path d="M16.9892 10.3898L16.7843 11.0292H16.1152L16.6563 11.4243L16.4514 12.0604L16.9892 11.6685L17.5271 12.0604L17.3254 11.4243L17.8632 11.0292H17.1973L16.9892 10.3898Z" fill="white"/>
<path d="M20.7549 10.3898L20.5436 11.0292H19.8809L20.4187 11.4243L20.2106 12.0604L20.7517 11.6653L21.2927 12.0604L21.0846 11.4243L21.6225 11.0292H20.9598L20.7549 10.3898Z" fill="white"/>
<path d="M4.03062 12.6515L3.82572 12.0122L3.61442 12.6515H2.94531L3.48637 13.0435L3.28147 13.686L3.82252 13.2876L4.36357 13.686L4.15868 13.0435L4.69973 12.6515H4.03062Z" fill="white"/>
<path d="M7.79624 12.6515L7.58815 12.0122L7.37685 12.6515H6.71094L7.24879 13.0403L7.04069 13.686L7.58495 13.2876L8.1292 13.686L7.9179 13.0435L8.46216 12.6515H7.79624Z" fill="white"/>
<path d="M11.5592 12.6515L11.3479 12.0122L11.143 12.6515H10.4707L11.015 13.0403L10.8069 13.686L11.3479 13.2876L11.8922 13.686L11.6841 13.0435L12.2219 12.6515H11.5592Z" fill="white"/>
<path d="M15.3194 12.6515L15.1113 12.0122L14.9064 12.6515H14.2341L14.7784 13.0435L14.5671 13.686L15.1113 13.2876L15.6492 13.686L15.4443 13.0435L15.9853 12.6515H15.3194Z" fill="white"/>
<path d="M19.0814 12.6515L18.8765 12.0122L18.6652 12.6515H17.9961L18.5403 13.0435L18.3323 13.686L18.8765 13.2876L19.4144 13.686L19.2095 13.0403L19.7505 12.6515H19.0814Z" fill="white"/>
<path d="M2.14531 14.2707L1.94041 13.6314L1.73552 14.2707H1.06641L1.60746 14.6627L1.40256 15.302L1.94041 14.9068L2.47827 15.302L2.27337 14.6627L2.81442 14.2707H2.14531Z" fill="white"/>
<path d="M5.91093 14.2707L5.70604 13.6314L5.49474 14.2707H4.83203L5.36988 14.6627L5.16179 15.302L5.70284 14.9068L6.24389 15.302L6.03899 14.6627L6.58005 14.2707H5.91093Z" fill="white"/>
<path d="M9.67195 14.2707L9.46385 13.6314L9.25575 14.2707H8.58984L9.1341 14.6627L8.926 15.302L9.46705 14.9036L10.0081 15.302L9.80001 14.6627L10.3379 14.2707H9.67195Z" fill="white"/>
<path d="M13.4337 14.2707L13.2256 13.6314L13.0207 14.2707H12.3516L12.8926 14.6627L12.6877 15.302L13.2256 14.9068L13.7666 15.302L13.5617 14.6627L14.0996 14.2707H13.4337Z" fill="white"/>
<path d="M17.1973 14.2707L16.9892 13.6314L16.7843 14.2707H16.1152L16.6563 14.6627L16.4514 15.302L16.9892 14.9068L17.5271 15.302L17.3254 14.6627L17.8632 14.2707H17.1973Z" fill="white"/>
<path d="M20.9598 14.2707L20.7549 13.6314L20.5436 14.2707H19.8809L20.4187 14.6627L20.2106 15.302L20.7517 14.9036L21.2927 15.302L21.0846 14.6627L21.6225 14.2707H20.9598Z" fill="white"/>
<path d="M47.9999 4.61664H22.6953V6.92655H47.9999V4.61664Z" fill="#AF2333"/>
<path d="M47.9999 9.23004H22.6953V11.54H47.9999V9.23004Z" fill="#AF2333"/>
<path d="M47.9999 13.8402H22.6953V16.1501H47.9999V13.8402Z" fill="#AF2333"/>
</g>
<defs>
<clipPath id="clip0_153_4922">
<rect width="48" height="30" rx="2" fill="white"/>
</clipPath>
</defs>
</svg>
